HIERARCHY
ROOT Hips
{
 OFFSET 0.000000 0.000000 0.000000
 CHANNELS 6 Xposition Yposition Zposition Yrotation Xrotation Zrotation
 JOINT Chest
 {
  OFFSET 0.000000 9.812683 -0.003552
  CHANNELS 3 Yrotation Xrotation Zrotation
  JOINT Chest2
  {
   OFFSET 0.000000 9.777810 0.007248
   CHANNELS 3 Yrotation Xrotation Zrotation
   JOINT Chest3
   {
    OFFSET 0.000000 9.736392 0.000000
    CHANNELS 3 Yrotation Xrotation Zrotation
    JOINT Chest4
    {
     OFFSET 0.000000 9.726454 0.000000
     CHANNELS 3 Yrotation Xrotation Zrotation
     JOINT Neck
     {
      OFFSET 0.000000 14.679095 0.000000
      CHANNELS 3 Yrotation Xrotation Zrotation
      JOINT Head
      {
       OFFSET 0.000000 9.104124 0.015333
       CHANNELS 3 Yrotation Xrotation Zrotation
       End Site
       {
        OFFSET 0.000000 17.313862 0.008094
       }
      }
     }
     JOINT RightCollar
     {
      OFFSET -2.991841 9.728033 0.000000
      CHANNELS 3 Yrotation Xrotation Zrotation
      JOINT RightShoulder
      {
       OFFSET -14.105608 0.000000 0.000000
       CHANNELS 3 Yrotation Xrotation Zrotation
       JOINT RightElbow
       {
        OFFSET -30.920614 0.000000 0.000000
        CHANNELS 3 Yrotation Xrotation Zrotation
        JOINT RightWrist
        {
         OFFSET -25.011638 0.000000 0.000000
         CHANNELS 3 Yrotation Xrotation Zrotation
         End Site
         {
          OFFSET -18.498852 0.000000 0.000000
         }
        }
       }
      }
     }
     JOINT LeftCollar
     {
      OFFSET 2.991841 9.728033 0.000000
      CHANNELS 3 Yrotation Xrotation Zrotation
      JOINT LeftShoulder
      {
       OFFSET 14.105608 0.000000 0.000000
       CHANNELS 3 Yrotation Xrotation Zrotation
       JOINT LeftElbow
       {
        OFFSET 30.920614 0.000000 0.000000
        CHANNELS 3 Yrotation Xrotation Zrotation
        JOINT LeftWrist
        {
         OFFSET 25.011638 0.000000 0.000000
         CHANNELS 3 Yrotation Xrotation Zrotation
         End Site
         {
          OFFSET 18.498852 0.000000 0.000000
         }
        }
       }
      }
     }
    }
   }
  }
 }
 JOINT RightHip
 {
  OFFSET -8.005612 0.017580 0.001776
  CHANNELS 3 Yrotation Xrotation Zrotation
  JOINT RightKnee
  {
   OFFSET 0.000000 -41.413990 -0.001697
   CHANNELS 3 Yrotation Xrotation Zrotation
   JOINT RightAnkle
   {
    OFFSET 0.000000 -40.303361 -0.002870
    CHANNELS 3 Yrotation Xrotation Zrotation
    JOINT RightToe
    {
     OFFSET 0.000000 -7.855341 17.873357
     CHANNELS 3 Yrotation Xrotation Zrotation
     End Site
     {
      OFFSET 0.000000 -1.536332 6.874071
     }
    }
   }
  }
 }
 JOINT LeftHip
 {
  OFFSET 8.005612 0.017580 0.001776
  CHANNELS 3 Yrotation Xrotation Zrotation
  JOINT LeftKnee
  {
   OFFSET 0.000000 -41.413990 -0.001697
   CHANNELS 3 Yrotation Xrotation Zrotation
   JOINT LeftAnkle
   {
    OFFSET 0.000000 -40.303361 -0.002870
    CHANNELS 3 Yrotation Xrotation Zrotation
    JOINT LeftToe
    {
     OFFSET 0.000000 -7.855341 17.873357
     CHANNELS 3 Yrotation Xrotation Zrotation
     End Site
     {
      OFFSET 0.000000 -1.536332 6.874071
     }
    }
   }
  }
 }
}
MOTION
Frames: 15
Frame Time: 0.008333
-25.703464 7.419741 76.811946 -131.936257 -45.410119 0.878351 2.674115 24.617885 4.134044 0.293229 3.888921 0.560544 0.488659 6.224622 0.908585 2.052022 20.420013 3.296936 28.328267 19.895633 -2.163831 36.651638 -0.396024 -9.475389 -4.485901 -1.870131 -5.002504 -4.855525 -13.354939 69.761244 59.588240 -48.217207 36.868944 7.186078 -14.570578 3.198984 -1.951781 0.656298 7.336345 20.083157 0.737769 -72.157507 -57.078461 -39.820685 -32.752400 8.114879 -13.577834 -30.121858 -105.414668 -75.120917 84.306089 -137.443666 61.003323 -120.619668 -36.551783 4.578368 -20.358624 0.010886 -0.102429 -0.014465 45.155351 -72.108852 -30.841942 23.275856 72.177662 13.984303 14.754262 -6.921004 -35.897730 0.123645 0.072862 -0.039400
-25.701826 7.415513 76.806387 -131.916401 -45.448370 0.859099 2.704183 24.628501 4.183573 0.295474 3.885656 0.563244 0.492354 6.219632 0.913018 2.067095 20.410850 3.314689 28.332722 19.882411 -2.131875 36.648526 -0.417520 -9.437112 -4.499650 -1.861174 -4.995055 -4.857632 -13.362184 69.859083 59.772849 -48.396964 36.868633 7.246366 -14.629433 3.298049 -1.937499 0.664061 7.366495 20.111490 0.769763 -72.105048 -57.082567 -39.767212 -32.736099 8.186712 -13.524051 -30.209531 -105.350484 -75.137756 84.224798 -137.511587 61.008071 -120.671110 -36.555449 4.594574 -20.352769 -0.002945 -0.081720 -0.014478 45.036861 -72.097746 -30.721447 23.392411 72.185729 14.076485 14.693097 -6.966648 -35.894706 0.138361 0.049923 -0.037909
-25.699579 7.416915 76.799853 -131.885562 -45.480428 0.823455 2.725170 24.631182 4.237758 0.297229 3.881015 0.565723 0.495261 6.212578 0.917095 2.079726 20.399025 3.331539 28.340516 19.872355 -2.100218 36.650509 -0.433862 -9.399732 -4.517242 -1.849928 -4.988586 -4.863205 -13.394221 69.944380 59.924940 -48.531987 36.891814 7.318268 -14.681566 3.373158 -1.921033 0.675360 7.396418 20.119829 0.809609 -72.056058 -57.067341 -39.733935 -32.711125 8.259584 -13.460418 -30.303302 -105.293591 -75.128612 84.142286 -137.550523 61.006394 -120.704406 -36.543244 4.589721 -20.355958 -0.017497 -0.046199 -0.011438 44.942175 -72.092793 -30.632783 23.512654 72.196713 14.191517 14.655670 -7.014100 -35.891748 0.139131 0.038817 -0.041660
-25.697443 7.423176 76.792940 -131.849634 -45.507169 0.779746 2.739687 24.631298 4.290886 0.298747 3.875429 0.568087 0.497786 6.204101 0.920991 2.091252 20.385304 3.348056 28.348840 19.864502 -2.072989 36.654693 -0.446406 -9.367901 -4.537419 -1.846657 -4.983027 -4.878209 -13.446710 70.020591 60.046824 -48.620375 36.938056 7.389784 -14.719656 3.438168 -1.901734 0.689067 7.431080 20.108002 0.852833 -72.018682 -57.043728 -39.718773 -32.671935 8.322099 -13.393319 -30.379024 -105.239025 -75.097994 84.054760 -137.555311 60.999182 -120.715088 -36.513924 4.574932 -20.366472 -0.039650 -0.008222 -0.009347 44.886108 -72.089125 -30.591379 23.582167 72.211360 14.278187 14.643048 -7.051098 -35.891809 0.129584 0.025670 -0.046100
-25.695787 7.434668 76.782368 -131.808391 -45.549129 0.713902 2.753246 24.647289 4.359366 0.300156 3.869633 0.570213 0.500129 6.195312 0.924505 2.102075 20.371275 3.363332 28.356020 19.859244 -2.049408 36.658167 -0.455261 -9.340186 -4.553021 -1.857100 -4.972834 -4.904612 -13.510648 70.082187 60.147021 -48.665635 37.002069 7.452528 -14.741224 3.503932 -1.879384 0.702166 7.471133 20.087417 0.896641 -71.993312 -57.015678 -39.709976 -32.623173 8.368460 -13.331552 -30.426149 -105.107542 -75.047976 83.880583 -137.545702 60.989284 -120.716448 -36.455135 4.548615 -20.370766 -0.085552 0.041120 -0.017158 44.770459 -72.083854 -30.495163 23.574754 72.230022 14.301447 14.653402 -7.068811 -35.894924 0.108706 0.002523 -0.050247
-25.695977 7.444038 76.776837 -131.774109 -45.567726 0.677306 2.755017 24.642096 4.394744 0.301439 3.863835 0.572190 0.502267 6.186524 0.927779 2.112126 20.357340 3.377738 28.362873 19.855648 -2.027975 36.661757 -0.461672 -9.314964 -4.561029 -1.874422 -4.953581 -4.938025 -13.588418 70.122026 60.240553 -48.667487 37.068523 7.503796 -14.742384 3.579436 -1.856732 0.713307 7.512198 20.071802 0.940645 -71.975267 -56.990045 -39.696882 -32.566068 8.399075 -13.280984 -30.440505 -105.077257 -75.021290 83.815951 -137.543683 60.980459 -120.723017 -36.419855 4.531298 -20.383936 -0.115952 0.070752 -0.019061 44.752564 -72.077084 -30.499585 23.498952 72.250931 14.257935 14.692033 -7.083671 -35.900228 0.078112 -0.008640 -0.054666
-25.697173 7.450360 76.773420 -131.745002 -45.575323 0.652722 2.752076 24.627279 4.416276 0.302365 3.857909 0.574340 0.503837 6.177542 0.931319 2.120401 20.343137 3.392885 28.370219 19.852881 -2.008412 36.666703 -0.466534 -9.292161 -4.564944 -1.884883 -4.931700 -4.964336 -13.687912 70.139457 60.345505 -48.631483 37.109804 7.542481 -14.718455 3.678483 -1.837058 0.725910 7.546637 20.069034 0.987828 -71.960639 -56.980346 -39.676073 -32.499453 8.417267 -13.245398 -30.411313 -105.086759 -75.007716 83.796039 -137.562033 60.979301 -120.743516 -36.404660 4.521829 -20.402693 -0.135861 0.087247 -0.017678 44.758126 -72.072891 -30.526597 23.386745 72.268461 14.171503 14.734354 -7.087643 -35.904265 0.046422 -0.017946 -0.056527
-25.699218 7.452465 76.771918 -131.725431 -45.574025 0.642450 2.747660 24.602472 4.425853 0.302916 3.852095 0.576575 0.504809 6.168729 0.934983 2.126677 20.329236 3.408175 28.377443 19.849649 -1.989248 36.671632 -0.471966 -9.269877 -4.569165 -1.885976 -4.914184 -4.962007 -13.800297 70.140862 60.477366 -48.577563 37.100375 7.565801 -14.673901 3.814724 -1.823526 0.742968 7.570787 20.078609 1.041273 -71.947273 -56.993057 -39.648598 -32.422832 8.421337 -13.223554 -30.326898 -105.125668 -75.003431 83.810746 -137.609191 60.991303 -120.787010 -36.415435 4.521434 -20.431401 -0.140591 0.089855 -0.010303 44.786937 -72.071134 -30.571215 23.285116 72.280471 14.086360 14.766194 -7.081077 -35.906698 0.016876 -0.026913 -0.054283
-25.702042 7.450317 76.772209 -131.724279 -45.566113 0.653122 2.747418 24.571772 4.424376 0.303380 3.846344 0.578406 0.505629 6.160020 0.937996 2.132172 20.315702 3.421210 28.384601 19.843070 -1.969053 36.676343 -0.481948 -9.246580 -4.576611 -1.886006 -4.903431 -4.913347 -13.908414 70.135228 60.638837 -48.529961 37.034048 7.572602 -14.618468 3.987775 -1.817480 0.760922 7.585040 20.096471 1.102194 -71.929789 -57.026848 -39.613454 -32.333302 8.410597 -13.209081 -30.186456 -105.183578 -75.007240 83.853988 -137.679833 61.014465 -120.850000 -36.446701 4.530876 -20.471796 -0.131330 0.080041 0.002903 44.845001 -72.069927 -30.632553 23.223553 72.288008 14.032625 14.780359 -7.067327 -35.909151 -0.006814 -0.037638 -0.047377
-25.705446 7.444700 76.773903 -131.739036 -45.554461 0.681754 2.752453 24.539144 4.415636 0.303614 3.840459 0.579833 0.506067 6.151115 0.940356 2.136158 20.302162 3.431973 28.392756 19.831963 -1.947377 36.682424 -0.497789 -9.222064 -4.586355 -1.891182 -4.902177 -4.815032 -14.002978 70.130339 60.826956 -48.498345 36.912810 7.564087 -14.565785 4.187683 -1.817600 0.775812 7.588320 20.120477 1.170200 -71.905229 -57.081145 -39.564098 -32.227157 8.385646 -13.200423 -29.996932 -105.248421 -75.016210 83.909024 -137.755514 61.041338 -120.917117 -36.486210 4.549030 -20.523421 -0.112821 0.058481 0.019651 44.929788 -72.067392 -30.708401 23.196973 72.293601 14.008305 14.778873 -7.048452 -35.912308 -0.023204 -0.051345 -0.036502
-25.709543 7.434882 76.779493 -131.768484 -45.527447 0.740014 2.759369 24.490560 4.386012 0.303251 3.834529 0.581190 0.505546 6.142150 0.942587 2.136846 20.288763 3.441947 28.402196 19.817341 -1.923998 36.690181 -0.518123 -9.196023 -4.593247 -1.904299 -4.911727 -4.686051 -14.081029 70.133724 61.036482 -48.472062 36.749310 7.545791 -14.523871 4.399355 -1.820024 0.787655 7.582640 20.152559 1.239781 -71.877503 -57.150634 -39.489414 -32.105831 8.344505 -13.201119 -29.775026 -105.372461 -75.035882 84.029018 -137.818048 61.063404 -120.973922 -36.546006 4.570991 -20.594303 -0.069519 0.018781 0.046474 45.090986 -72.064470 -30.851812 23.196036 72.298410 14.002874 14.766617 -7.033765 -35.919107 -0.027402 -0.061039 -0.019868
-25.712965 7.425707 76.781028 -131.779708 -45.521206 0.765483 2.762521 24.459040 4.377922 0.302416 3.828945 0.582571 0.504266 6.133711 0.944838 2.134870 20.276253 3.451540 28.412736 19.799617 -1.899706 36.699569 -0.542329 -9.169376 -4.594012 -1.927330 -4.929104 -4.552005 -14.145456 70.149817 61.259109 -48.429824 36.560488 7.528224 -14.486763 4.600538 -1.818634 0.796475 7.571759 20.195100 1.301687 -71.848246 -57.221862 -39.384670 -31.985660 8.287915 -13.210951 -29.542176 -105.410256 -75.038457 84.044122 -137.873289 61.078584 -121.023028 -36.572806 4.578462 -20.654547 -0.050622 -0.006786 0.061169 45.121342 -72.067428 -30.873557 23.225197 72.300409 14.016602 14.753649 -7.004875 -35.926451 -0.034568 -0.077155 -0.004835
-25.715330 7.415214 76.781341 -131.792992 -45.517611 0.784289 2.769524 24.429510 4.376145 0.301854 3.823797 0.584029 0.503426 6.125925 0.947217 2.134322 20.264521 3.461558 28.422374 19.779047 -1.875285 36.707716 -0.570511 -9.142613 -4.593927 -1.957585 -4.950832 -4.420501 -14.204603 70.179306 61.501683 -48.353640 36.341891 7.514459 -14.448327 4.769152 -1.815893 0.803258 7.559318 20.249149 1.347673 -71.820294 -57.281006 -39.254529 -31.877233 8.226692 -13.228289 -29.326013 -105.414908 -75.035656 84.029273 -137.942115 61.101151 -121.076083 -36.606344 4.573383 -20.718806 -0.029763 -0.025409 0.076343 45.086875 -72.084628 -30.830172 23.285401 72.302393 14.047859 14.740512 -6.975178 -35.940378 -0.035873 -0.092581 0.011168
-25.716252 7.402757 76.780793 -131.812710 -45.511758 0.800179 2.785804 24.400548 4.380950 0.301906 3.818722 0.585558 0.503572 6.118239 0.949728 2.137166 20.252664 3.472403 28.429146 19.755527 -1.851531 36.711841 -0.603228 -9.116280 -4.599315 -1.989732 -4.975260 -4.287409 -14.265082 70.218580 61.771821 -48.238587 36.085548 7.495124 -14.412241 4.911428 -1.817990 0.809058 7.548788 20.307855 1.378813 -71.798347 -57.319336 -39.119224 -31.781926 8.171485 -13.249973 -29.152365 -105.402364 -75.034416 84.003503 -138.019022 61.133835 -121.119748 -36.649693 4.565937 -20.796588 -0.003553 -0.042135 0.094071 45.011131 -72.116311 -30.739917 23.355536 72.306617 14.076261 14.728608 -6.950546 -35.958021 -0.030728 -0.105473 0.026534
-25.716766 7.388144 76.780484 -131.831553 -45.503572 0.817097 2.803809 24.373207 4.383806 0.302128 3.813598 0.586955 0.503987 6.110478 0.952033 2.140859 20.240695 3.482700 28.433894 19.728839 -1.829397 36.713596 -0.640357 -9.091811 -4.610341 -2.023139 -4.998587 -4.153613 -14.329000 70.258384 62.051425 -48.105370 35.818028 7.464572 -14.366896 5.046502 -1.823626 0.815887 7.540211 20.357872 1.399969 -71.782984 -57.329632 -39.007767 -31.704259 8.128614 -13.269241 -29.025253 -105.403504 -75.043962 83.991566 -138.079287 61.154240 -121.138208 -36.681535 4.561464 -20.875738 0.020312 -0.061836 0.107311 44.934640 -72.148841 -30.648268 23.413966 72.310965 14.087637 14.718337 -6.933149 -35.973782 -0.020598 -0.113852 0.038700
